<svg width="48" height="48" viewBox="0 0 48 48" fill="none" xmlns="http://www.w3.org/2000/svg">
<path d="M31.132 22.042C33.2215 20.8013 34.953 19.0393 36.1569 16.9284C37.3609 14.8175 37.9959 12.4301 38 10V8H40V4H8V8H10V10C10.0041 12.4301 10.6391 14.8175 11.8431 16.9284C13.047 19.0393 14.7785 20.8013 16.868 22.042C17.576 22.458 18 23.132 18 23.842V24.158C18 24.866 17.576 25.538 16.868 25.958C14.7785 27.1987 13.047 28.9607 11.8431 31.0716C10.6391 33.1825 10.0041 35.5699 10 38V40H8V44H40V40H38V38C37.9962 35.5704 37.3614 33.1834 36.1578 31.0728C34.9542 28.9622 33.2231 27.2004 31.134 25.96C30.424 25.54 30 24.866 30 24.158V23.842C30 23.132 30.424 22.458 31.132 22.042ZM29.102 29.404C30.5927 30.2902 31.8279 31.5482 32.6864 33.055C33.545 34.5618 33.9976 36.2658 34 38V40H14V38C14.0026 36.2653 14.4555 34.561 15.3145 33.0539C16.1734 31.5467 17.4089 30.2884 18.9 29.402C20.842 28.256 22 26.294 22 24.158V23.842C22 21.704 20.84 19.74 18.898 18.596C17.4073 17.7098 16.1721 16.4518 15.3136 14.945C14.455 13.4382 14.0024 11.7342 14 10V8H34V10C34 13.52 32.124 16.812 29.102 18.596C27.16 19.74 26 21.704 26 23.842V24.158C26 26.294 27.158 28.256 29.102 29.404Z" fill="#0B290A"/>
</svg>
