<svg width="48" height="48" viewBox="0 0 48 48" fill="none" xmlns="http://www.w3.org/2000/svg">
<path d="M38 6C34.692 6 32 8.692 32 12C32 13.004 32.272 13.936 32.708 14.77L30.476 17.374C29.1557 16.4772 27.5961 15.9984 26 16C24.522 16 23.15 16.432 21.96 17.132L19.132 14.304C19.6938 13.2929 19.9923 12.1567 20 11C20 7.14 16.86 4 13 4C9.14 4 6 7.14 6 11C6 14.86 9.14 18 13 18C14.202 18 15.316 17.668 16.304 17.132L19.132 19.96C18.3994 21.1809 18.0085 22.5762 18 24C18 25.994 18.76 27.798 19.97 29.202L16.586 32.586L16.636 32.636C15.8183 32.223 14.916 32.0053 14 32C10.692 32 8 34.692 8 38C8 41.308 10.692 44 14 44C17.308 44 20 41.308 20 38C20 37.048 19.758 36.162 19.364 35.364L19.414 35.414L23.322 31.506C24.164 31.806 25.056 32 26 32C30.412 32 34 28.412 34 24C33.9914 22.7576 33.6906 21.5347 33.122 20.43L35.628 17.506C36.356 17.822 37.156 18 38 18C41.308 18 44 15.308 44 12C44 8.692 41.308 6 38 6ZM14 40C13.4696 40 12.9609 39.7893 12.5858 39.4142C12.2107 39.0391 12 38.5304 12 38C12 37.4696 12.2107 36.9609 12.5858 36.5858C12.9609 36.2107 13.4696 36 14 36C14.5304 36 15.0391 36.2107 15.4142 36.5858C15.7893 36.9609 16 37.4696 16 38C16 38.5304 15.7893 39.0391 15.4142 39.4142C15.0391 39.7893 14.5304 40 14 40ZM10 11C10 9.346 11.346 8 13 8C14.654 8 16 9.346 16 11C16 12.654 14.654 14 13 14C11.346 14 10 12.654 10 11ZM26 28C23.794 28 22 26.206 22 24C22 21.794 23.794 20 26 20C28.206 20 30 21.794 30 24C30 26.206 28.206 28 26 28ZM38 14C37.4696 14 36.9609 13.7893 36.5858 13.4142C36.2107 13.0391 36 12.5304 36 12C36 11.4696 36.2107 10.9609 36.5858 10.5858C36.9609 10.2107 37.4696 10 38 10C38.5304 10 39.0391 10.2107 39.4142 10.5858C39.7893 10.9609 40 11.4696 40 12C40 12.5304 39.7893 13.0391 39.4142 13.4142C39.0391 13.7893 38.5304 14 38 14Z" fill="#0B290A"/>
</svg>
