<svg width="48" height="48" viewBox="0 0 48 48" fill="none" xmlns="http://www.w3.org/2000/svg">
<path d="M24 4C12.972 4 4 12.972 4 24C4 35.028 12.972 44 24 44C35.028 44 44 35.028 44 24C44 12.972 35.028 4 24 4ZM24 40C15.178 40 8 32.822 8 24C8 15.178 15.178 8 24 8C32.822 8 40 15.178 40 24C40 32.822 32.822 40 24 40Z" fill="#0B290A"/>
<path d="M24 10.3321V24.0001H37.668C37.6725 22.2039 37.322 20.4246 36.6367 18.7643C35.9514 17.104 34.9448 15.5954 33.6747 14.3253C32.4047 13.0553 30.8961 12.0486 29.2358 11.3634C27.5755 10.6781 25.7962 10.3276 24 10.3321Z" fill="#0B290A"/>
</svg>
